<?xml version="1.0" standalone="no"?>
<!DOCTYPE svg PUBLIC "-//W3C//DTD SVG 20010904//EN"
 "http://www.w3.org/TR/2001/REC-SVG-20010904/DTD/svg10.dtd">
<svg version="1.0" xmlns="http://www.w3.org/2000/svg"
 width="512.000000pt" height="512.000000pt" viewBox="0 0 512.000000 512.000000"
 preserveAspectRatio="xMidYMid meet">

<g transform="translate(0.000000,512.000000) scale(0.100000,-0.100000)"
fill="#000000" stroke="none">
<path d="M2315 5109 c-800 -83 -1501 -518 -1927 -1196 -487 -774 -516 -1777
-75 -2578 200 -364 487 -676 841 -913 238 -159 600 -311 876 -366 214 -43 295
-51 530 -51 236 0 333 10 532 51 880 184 1615 842 1898 1702 92 278 125 491
125 802 0 301 -32 513 -116 775 -124 390 -330 728 -622 1024 -399 404 -893
653 -1462 737 -123 18 -478 26 -600 13z m905 -1374 l0 -245 -165 0 c-266 0
-268 -3 -273 -262 l-4 -178 221 0 c204 0 221 -1 221 -17 0 -23 -39 -398 -46
-440 l-5 -33 -194 0 -195 0 0 -710 0 -710 -295 0 -295 0 0 710 0 710 -145 0
-145 0 0 245 0 245 144 0 144 0 5 233 c4 194 8 245 25 310 43 157 125 261 254
322 118 55 179 63 481 64 l267 1 0 -245z"/>
</g>
</svg>
