<?xml version="1.0" standalone="no"?>
<!DOCTYPE svg PUBLIC "-//W3C//DTD SVG 20010904//EN"
 "http://www.w3.org/TR/2001/REC-SVG-20010904/DTD/svg10.dtd">
<svg version="1.0" xmlns="http://www.w3.org/2000/svg"
 width="512.000000pt" height="512.000000pt" viewBox="0 0 512.000000 512.000000"
 preserveAspectRatio="xMidYMid meet">

<g transform="translate(0.000000,512.000000) scale(0.100000,-0.100000)"
fill="#000000" stroke="none">
<path d="M2315 5109 c-800 -83 -1501 -518 -1927 -1196 -604 -961 -490 -2237
274 -3068 425 -462 951 -737 1583 -827 119 -17 512 -16 635 1 622 86 1148 360
1572 820 349 378 572 862 650 1406 17 118 17 512 0 630 -59 416 -191 769 -410
1099 -92 140 -185 254 -315 385 -399 404 -893 653 -1462 737 -123 18 -478 26
-600 13z m873 -1594 c130 -12 285 -70 412 -154 76 -50 194 -163 246 -237 86
-121 174 -346 174 -448 0 -25 3 -27 23 -22 12 4 54 14 92 22 165 37 355 -19
478 -142 108 -106 157 -215 164 -364 9 -165 -40 -293 -157 -411 -71 -72 -173
-128 -268 -148 -36 -7 -311 -11 -852 -11 -787 0 -800 0 -820 20 -20 20 -20 33
-20 906 0 565 4 892 10 904 17 32 209 86 335 93 51 3 73 2 183 -8z m-613 -127
c14 -6 28 -21 30 -32 3 -12 11 -298 18 -636 12 -523 11 -651 0 -845 -16 -252
-22 -275 -72 -275 -55 0 -59 14 -73 275 -10 191 -11 351 -1 785 6 300 11 580
12 623 1 63 5 81 21 97 23 23 30 24 65 8z m-171 -120 c23 -36 43 -1080 27
-1397 -14 -256 -18 -271 -71 -271 -15 0 -33 7 -40 15 -23 27 -32 356 -26 925
7 611 12 714 33 736 22 21 60 17 77 -8z m-565 -126 c5 -10 17 -246 26 -525 15
-472 15 -523 0 -749 -9 -134 -21 -249 -27 -255 -14 -17 -53 -17 -66 0 -6 7
-17 120 -26 253 -14 214 -14 294 0 754 10 330 19 519 26 527 15 19 56 16 67
-5z m183 -19 c25 -28 49 -970 32 -1218 -7 -99 -13 -201 -13 -227 -1 -53 -19
-78 -57 -78 -16 0 -28 8 -34 23 -6 12 -16 126 -23 252 -17 319 4 1219 30 1247
20 23 46 23 65 1z m-367 -13 c4 -6 15 -234 24 -508 17 -474 17 -508 0 -735
-11 -146 -22 -244 -29 -253 -15 -17 -44 -18 -58 -1 -6 6 -18 121 -27 254 -15
222 -15 281 0 734 10 312 20 498 27 506 13 16 54 17 63 3z m555 -20 c13 -13
20 -33 20 -57 0 -21 5 -233 12 -472 13 -500 1 -910 -29 -943 -21 -23 -56 -23
-75 0 -28 31 -42 463 -29 905 6 208 11 417 11 463 0 71 3 87 20 104 11 11 27
20 35 20 8 0 24 -9 35 -20z m-744 -62 c4 -7 16 -208 27 -448 17 -416 17 -446
1 -685 -9 -137 -21 -260 -25 -272 -9 -23 -52 -33 -63 -14 -3 5 -13 118 -22
252 -16 227 -16 275 -1 695 9 248 19 459 23 468 7 19 49 22 60 4z m-175 -208
c4 -25 15 -200 24 -390 17 -338 17 -350 -3 -578 -12 -127 -24 -237 -27 -242
-11 -18 -45 -11 -54 13 -4 12 -15 132 -24 267 -16 230 -16 267 1 600 10 195
21 361 26 368 4 7 17 12 29 10 17 -2 23 -12 28 -48z m-373 -213 c6 -7 21 -122
33 -255 l22 -243 -22 -242 c-13 -133 -25 -245 -28 -249 -9 -16 -34 -7 -42 15
-4 12 -16 128 -26 257 -17 230 -17 240 2 471 11 130 23 242 27 248 9 15 21 14
34 -2z m-173 -19 c3 -7 15 -118 28 -246 l23 -233 -22 -212 c-13 -117 -23 -222
-23 -235 -1 -23 -26 -41 -39 -27 -4 3 -17 109 -28 233 l-22 227 20 230 c10
127 21 240 24 253 5 24 32 30 39 10z m353 -11 c6 -7 21 -116 33 -241 l21 -229
-21 -241 c-23 -252 -32 -289 -65 -256 -11 11 -20 80 -34 256 -19 237 -19 243
0 470 21 244 32 283 66 241z m-528 -64 c0 -3 11 -96 25 -205 l25 -198 -25
-202 c-14 -111 -28 -204 -30 -206 -2 -3 -10 -2 -18 1 -9 3 -20 62 -35 205
l-22 200 20 193 c12 107 23 200 25 207 4 12 35 17 35 5z m-166 -160 c3 -10 13
-69 22 -131 16 -107 16 -119 -1 -238 -12 -84 -23 -128 -32 -131 -8 -3 -16 -4
-18 -1 -2 2 -12 61 -21 130 -16 118 -16 135 -1 248 9 67 19 126 22 131 10 14
23 11 29 -8z"/>
</g>
</svg>
