<?xml version="1.0" standalone="no"?>
<!DOCTYPE svg PUBLIC "-//W3C//DTD SVG 20010904//EN"
 "http://www.w3.org/TR/2001/REC-SVG-20010904/DTD/svg10.dtd">
<svg version="1.0" xmlns="http://www.w3.org/2000/svg"
 width="512.000000pt" height="512.000000pt" viewBox="0 0 512.000000 512.000000"
 preserveAspectRatio="xMidYMid meet">

<g transform="translate(0.000000,512.000000) scale(0.100000,-0.100000)"
fill="#000000" stroke="none">
<path d="M2315 5109 c-799 -83 -1501 -518 -1927 -1196 -606 -964 -489 -2247
282 -3077 424 -457 947 -728 1575 -818 137 -20 523 -16 665 5 581 90 1072 336
1461 734 130 132 157 163 243 277 153 204 294 476 375 722 81 247 118 451 128
714 37 983 -496 1897 -1377 2362 -244 128 -531 221 -825 264 -123 18 -478 26
-600 13z m273 -1355 c605 -49 1161 -199 1580 -426 168 -91 212 -148 212 -278
0 -136 -104 -238 -242 -240 -40 0 -71 12 -200 79 -380 196 -781 307 -1328 368
-220 24 -746 24 -955 -1 -189 -22 -387 -58 -535 -97 -141 -38 -197 -36 -267 7
-127 79 -152 264 -51 379 45 51 97 73 257 111 474 112 972 144 1529 98z m-153
-875 c459 -37 917 -167 1317 -371 177 -91 223 -124 249 -182 27 -59 25 -150
-4 -201 -58 -102 -170 -129 -282 -67 -461 253 -891 376 -1440 413 -340 22
-760 -20 -1060 -107 -64 -18 -101 -24 -131 -19 -104 15 -182 115 -171 219 12
120 64 167 227 210 422 111 820 144 1295 105z m-50 -829 c434 -38 830 -154
1156 -341 133 -76 152 -99 157 -189 3 -55 0 -70 -20 -99 -32 -48 -81 -74 -135
-73 -34 0 -66 12 -141 54 -394 221 -792 318 -1297 318 -279 0 -515 -25 -803
-86 -141 -30 -177 -27 -226 16 -45 40 -59 78 -54 145 9 108 50 135 272 180
369 75 771 102 1091 75z"/>
</g>
</svg>
