<?xml version="1.0" standalone="no"?>
<!DOCTYPE svg PUBLIC "-//W3C//DTD SVG 20010904//EN"
 "http://www.w3.org/TR/2001/REC-SVG-20010904/DTD/svg10.dtd">
<svg version="1.0" xmlns="http://www.w3.org/2000/svg"
 width="740.000000pt" height="740.000000pt" viewBox="0 0 740.000000 740.000000"
 preserveAspectRatio="xMidYMid meet">

<g transform="translate(0.000000,740.000000) scale(0.100000,-0.100000)"
fill="#000000" stroke="none">
<path d="M0 3700 l0 -3700 3700 0 3700 0 0 3700 0 3700 -3700 0 -3700 0 0
-3700z m2993 1932 c65 -97 246 -361 402 -587 371 -537 390 -563 467 -676 l66
-97 129 146 c149 170 310 354 468 537 258 298 475 549 603 697 l137 158 188 0
189 0 -84 -92 c-47 -51 -230 -259 -408 -463 -177 -203 -352 -404 -389 -445
-97 -109 -311 -356 -349 -403 -18 -22 -97 -112 -175 -199 -78 -88 -143 -163
-145 -167 -1 -5 13 -30 33 -56 20 -25 124 -176 232 -333 213 -312 280 -409
448 -652 288 -417 386 -559 505 -730 71 -102 189 -273 261 -380 73 -107 145
-211 161 -231 15 -20 28 -40 28 -43 0 -3 -278 -6 -618 -6 l-618 0 -221 328
c-122 181 -329 483 -460 673 -131 189 -281 406 -333 482 -89 130 -95 137 -110
120 -14 -18 -312 -359 -429 -493 -104 -118 -319 -367 -681 -789 l-275 -321
-187 0 -188 0 173 198 c95 108 244 280 332 382 88 102 245 284 350 404 104
120 217 251 250 290 33 40 152 177 265 305 267 304 247 277 223 304 -11 12
-76 105 -145 207 -69 102 -154 228 -191 280 -36 52 -127 185 -201 295 -74 110
-186 274 -248 365 -63 91 -154 224 -203 295 -278 407 -380 556 -482 703 -62
89 -113 165 -113 167 0 3 276 5 613 4 l612 -1 118 -176z"/>
<path d="M2160 5534 c0 -3 13 -23 28 -43 27 -34 70 -96 194 -276 158 -230 418
-609 461 -670 166 -240 336 -484 395 -570 38 -55 141 -201 227 -325 157 -223
367 -526 479 -690 110 -161 427 -615 584 -837 86 -122 162 -229 167 -238 9
-14 41 -15 282 -13 l273 3 -58 82 c-31 45 -100 144 -152 219 -112 163 -281
405 -401 576 -286 409 -598 859 -1112 1603 -110 160 -314 452 -452 650 -138
198 -278 399 -311 447 l-59 87 -272 1 c-150 0 -273 -3 -273 -6z"/>
</g>
</svg>
