<?xml version="1.0" standalone="no"?>
<!DOCTYPE svg PUBLIC "-//W3C//DTD SVG 20010904//EN"
 "http://www.w3.org/TR/2001/REC-SVG-20010904/DTD/svg10.dtd">
<svg version="1.0" xmlns="http://www.w3.org/2000/svg"
 width="640.000000pt" height="480.000000pt" viewBox="0 0 640.000000 480.000000"
 preserveAspectRatio="xMidYMid meet">

<g transform="translate(0.000000,480.000000) scale(0.100000,-0.100000)"
fill="#000000" stroke="none">
<path d="M3065 4564 c-243 -24 -387 -53 -570 -115 -365 -124 -699 -353 -952
-654 -263 -312 -428 -681 -489 -1091 -20 -135 -23 -442 -5 -574 78 -574 361
-1073 811 -1432 294 -234 654 -389 1036 -444 160 -23 448 -23 608 0 382 55
742 210 1036 444 441 351 726 845 806 1398 23 160 23 448 0 607 -80 555 -364
1047 -806 1399 -293 233 -657 390 -1032 443 -105 15 -370 26 -443 19z m-64
-1358 c184 -247 338 -449 341 -450 2 0 128 132 278 294 150 162 325 351 389
419 64 68 129 138 145 157 l29 34 113 0 c63 0 114 -3 114 -8 0 -4 -133 -151
-296 -327 -163 -176 -345 -372 -403 -435 -58 -63 -141 -152 -184 -198 -53 -56
-75 -87 -69 -95 72 -94 1082 -1449 1082 -1452 0 -3 -179 -5 -398 -5 l-398 0
-364 490 c-201 269 -370 488 -375 487 -6 -1 -73 -69 -150 -152 -77 -82 -165
-177 -196 -210 -31 -33 -141 -152 -244 -265 -103 -113 -219 -238 -258 -278
l-69 -72 -115 0 c-133 0 -132 -9 -17 112 38 41 117 125 175 188 58 63 247 267
419 453 172 186 320 348 330 360 16 22 9 32 -496 707 -282 377 -513 688 -514
693 0 4 179 6 397 5 l398 -3 336 -449z"/>
<path d="M2220 3475 c0 -3 150 -205 333 -449 182 -244 544 -728 802 -1074
l470 -631 183 0 c136 -1 181 2 176 11 -4 6 -201 270 -438 587 -238 317 -597
798 -800 1069 l-368 492 -179 0 c-98 0 -179 -2 -179 -5z"/>
</g>
</svg>
